<?xml version="1.0" standalone="no"?>
<!DOCTYPE svg PUBLIC "-//W3C//DTD SVG 20010904//EN"
 "http://www.w3.org/TR/2001/REC-SVG-20010904/DTD/svg10.dtd">
<svg version="1.0" xmlns="http://www.w3.org/2000/svg"
 width="672.000000pt" height="671.000000pt" viewBox="0 0 672.000000 671.000000"
 preserveAspectRatio="xMidYMid meet">

<g transform="translate(0.000000,671.000000) scale(0.100000,-0.100000)"
fill="#000000" stroke="none">
<path d="M3150 6704 c-818 -59 -1552 -386 -2128 -948 -537 -524 -868 -1171
-982 -1921 -28 -179 -38 -593 -21 -780 62 -653 296 -1245 698 -1767 105 -135
410 -445 543 -550 322 -255 688 -452 1061 -573 1079 -349 2242 -136 3139 573
133 105 438 415 543 550 402 522 636 1114 698 1767 17 187 7 601 -21 780 -114
750 -445 1397 -982 1921 -531 518 -1192 835 -1938 929 -121 15 -498 27 -610
19z m590 -40 c622 -69 1217 -319 1724 -726 132 -107 379 -355 490 -493 480
-599 736 -1326 736 -2090 0 -764 -254 -1487 -736 -2090 -107 -134 -365 -394
-494 -496 -279 -223 -561 -388 -875 -512 -1250 -495 -2674 -189 -3612 776
-508 523 -814 1155 -919 1902 -26 184 -27 643 -1 835 72 533 241 984 532 1425
129 195 244 335 420 511 277 278 580 493 929 659 557 266 1178 369 1806 299z"/>
<path d="M3095 6609 c-334 -27 -707 -119 -1011 -249 -1016 -433 -1750 -1356
-1939 -2440 -44 -251 -59 -637 -35 -881 75 -758 406 -1456 945 -1994 592 -591
1365 -925 2205 -952 445 -14 881 61 1295 224 1128 445 1919 1478 2050 2680 29
274 17 652 -30 923 -202 1163 -1037 2141 -2154 2522 -421 144 -890 203 -1326
167z m636 -34 c716 -84 1372 -395 1883 -894 541 -530 851 -1147 963 -1916 25
-175 25 -640 0 -820 -21 -150 -63 -355 -74 -366 -25 -25 -329 -35 -409 -13
l-21 6 24 91 c92 360 109 780 47 1157 -41 249 -131 531 -244 765 -385 796
-1134 1373 -1997 1539 -202 38 -332 50 -553 49 -638 -2 -1204 -196 -1725 -592
-134 -102 -390 -359 -499 -501 -485 -633 -679 -1422 -546 -2211 11 -64 30
-157 43 -207 21 -79 22 -92 9 -97 -61 -23 -389 -11 -416 15 -12 12 -52 208
-73 364 -25 183 -25 647 0 826 97 688 379 1290 834 1780 248 266 514 475 827
648 573 319 1268 454 1927 377z m69 -454 c375 -65 697 -183 1001 -367 643
-388 1102 -1012 1280 -1739 58 -236 73 -373 73 -660 0 -285 -15 -421 -72 -655
-27 -112 -28 -115 -56 -118 -34 -4 -34 -11 8 173 51 223 61 322 61 600 0 200
-4 286 -18 375 -97 621 -357 1141 -784 1566 -345 343 -768 586 -1235 709 -944
247 -1946 -23 -2633 -710 -426 -426 -686 -945 -782 -1565 -14 -89 -18 -174
-18 -375 1 -280 11 -387 61 -600 41 -177 40 -171 10 -177 -30 -6 -30 -6 -70
177 -49 219 -60 332 -60 605 0 213 4 279 23 399 94 611 361 1141 791 1572 415
416 941 689 1512 783 209 35 199 34 508 31 228 -2 296 -6 400 -24z m-126 -66
c907 -106 1698 -658 2113 -1475 55 -108 133 -292 127 -299 -2 -2 -88 47 -193
108 l-189 111 -2172 0 -2172 0 -189 -111 c-105 -61 -191 -110 -193 -108 -6 7
72 191 127 299 412 811 1201 1365 2101 1474 154 19 482 19 640 1z m1813 -1581
c-3 -3 -119 -72 -259 -154 l-253 -147 -50 28 c-43 24 -50 32 -47 54 5 36 -14
55 -54 55 -41 0 -67 -25 -60 -56 5 -19 -3 -28 -52 -58 l-57 -35 38 -1 c36 0
37 -1 37 -38 0 -35 -3 -38 -40 -50 -58 -18 -2602 -18 -2660 0 -37 12 -40 15
-40 50 0 37 1 38 38 38 l37 1 -57 35 c-49 30 -57 39 -52 58 7 31 -19 56 -60
56 -40 0 -59 -19 -54 -55 3 -22 -4 -30 -47 -54 l-50 -28 -253 147 c-140 82
-256 151 -259 154 -4 3 954 6 2127 6 1173 0 2131 -3 2127 -6z m-3982 -185
c216 -126 295 -177 295 -191 0 -11 -7 -18 -19 -18 -11 0 -23 -4 -26 -10 -4 -6
-77 -10 -186 -10 -166 0 -179 1 -179 18 0 10 -11 40 -25 68 -43 86 -141 129
-236 104 -60 -16 -124 -82 -141 -143 l-12 -47 -118 0 c-96 0 -118 3 -118 14 0
8 11 50 25 93 l25 78 193 113 c106 62 200 110 209 108 10 -2 150 -82 313 -177z
m4232 69 l193 -113 25 -78 c14 -43 25 -85 25 -93 0 -11 -22 -14 -118 -14
l-118 0 -12 47 c-17 61 -81 127 -141 143 -95 25 -193 -18 -236 -104 -14 -28
-25 -58 -25 -68 0 -17 -13 -18 -179 -18 -109 0 -182 4 -186 10 -3 6 -15 10
-26 10 -15 0 -19 6 -17 20 2 14 88 69 303 195 165 96 304 175 309 175 5 0 96
-51 203 -112z m-3816 -92 c1 -6 1 -18 0 -26 -1 -8 16 -25 36 -37 l38 -22 -100
0 -100 0 38 22 c26 15 36 27 33 40 -2 9 2 24 10 32 16 15 43 10 45 -9z m2930
0 c1 -6 1 -18 0 -26 -1 -8 16 -25 36 -37 l38 -22 -100 0 -100 0 38 22 c26 15
36 27 33 40 -2 9 2 24 10 32 16 15 43 10 45 -9z m-3581 -51 c35 -18 66 -54 85
-97 8 -21 15 -40 15 -43 0 -3 -18 -5 -40 -5 -30 0 -40 4 -40 16 0 8 -13 29
-29 45 -24 24 -38 29 -76 29 -38 0 -52 -5 -76 -29 -16 -16 -29 -37 -29 -45 0
-12 -10 -16 -39 -16 l-40 0 10 33 c31 110 156 164 259 112z m4345 2 c47 -23
80 -64 95 -118 8 -28 8 -29 -31 -29 -29 0 -39 4 -39 16 0 8 -13 29 -29 45 -24
24 -38 29 -76 29 -38 0 -52 -5 -76 -29 -16 -16 -29 -37 -29 -45 0 -12 -10 -16
-41 -16 -37 0 -40 2 -33 23 20 65 72 122 122 133 15 3 32 7 37 9 15 5 77 -6
100 -18z m-3665 -97 l0 -40 -55 0 -55 0 0 40 0 40 55 0 55 0 0 -40z m2930 0
l0 -40 -55 0 -55 0 0 40 0 40 55 0 55 0 0 -40z m-2875 -80 c18 -20 17 -20
-105 -20 -122 0 -123 0 -105 20 15 17 31 20 105 20 74 0 90 -3 105 -20z m2920
0 c18 -20 17 -20 -105 -20 -122 0 -123 0 -105 20 15 17 31 20 105 20 74 0 90
-3 105 -20z m-3935 -350 l0 -330 -177 0 -176 0 7 123 c11 196 48 446 76 515 9
21 14 22 140 22 l130 0 0 -330z m350 0 l0 -330 -155 0 -155 0 0 330 0 330 155
0 155 0 0 -330z m350 322 c0 -4 -5 -13 -12 -20 -9 -9 -2 -12 35 -12 l47 0 0
-310 0 -310 -190 0 -190 0 0 330 0 330 155 0 c85 0 155 -4 155 -8z m2930 -2
c0 -5 -8 -14 -17 -19 -14 -8 -6 -10 35 -11 l52 0 0 -310 0 -310 -522 0 c-288
0 -534 3 -547 7 -24 6 -24 7 -17 105 l6 98 -85 0 -85 0 0 100 c0 118 -12 140
-80 140 -68 0 -80 -22 -80 -140 l0 -100 -80 0 -80 0 0 -99 c0 -94 -1 -99 -22
-105 -13 -3 -258 -6 -545 -6 l-523 0 0 310 0 310 53 0 c40 1 48 3 35 11 -10 5
-18 14 -18 19 0 6 471 10 1260 10 789 0 1260 -4 1260 -10z m720 -320 l0 -330
-190 0 -190 0 0 310 0 310 47 0 c37 0 44 3 35 12 -7 7 -12 16 -12 20 0 4 70 8
155 8 l155 0 0 -330z m350 0 l0 -330 -155 0 -155 0 0 330 0 330 155 0 155 0 0
-330z m310 308 c28 -69 65 -319 76 -515 l7 -123 -176 0 -177 0 0 330 0 330
130 0 c126 0 131 -1 140 -22z m-4032 -320 l2 -298 -75 0 -75 0 0 293 c0 162 3
297 7 301 4 4 37 6 73 4 l65 -3 3 -297z m2930 0 l2 -298 -75 0 -75 0 0 293 c0
162 3 297 7 301 4 4 37 6 73 4 l65 -3 3 -297z m-1310 -140 c3 -17 -13 -18
-227 -18 -186 0 -231 3 -231 13 0 8 3 17 7 21 4 3 106 5 227 4 201 -3 221 -5
224 -20z m-8 -93 c0 -30 -4 -55 -9 -55 -5 0 -51 16 -101 35 -50 19 -100 35
-110 35 -10 0 -60 -16 -110 -35 -50 -19 -96 -35 -101 -35 -5 0 -9 25 -9 55 l0
55 220 0 220 0 0 -55z m-101 -93 c52 -20 96 -43 99 -49 3 -10 -45 -13 -218
-13 -173 0 -221 3 -218 13 6 15 184 86 218 86 14 0 67 -17 119 -37z m-1484
-12 c18 -20 17 -20 -100 -20 -117 0 -118 0 -100 20 15 17 31 20 100 20 69 0
85 -3 100 -20z m2930 0 c18 -20 17 -20 -100 -20 -117 0 -118 0 -100 20 15 17
31 20 100 20 69 0 85 -3 100 -20z m-3935 -310 l0 -290 -139 0 c-124 0 -140 2
-145 18 -22 71 -66 415 -66 525 l0 37 175 0 175 0 0 -290z m350 47 l0 -244
-104 -46 c-80 -36 -116 -47 -155 -47 l-51 0 0 290 0 290 155 0 155 0 0 -243z
m360 236 c0 -3 -7 -15 -17 -25 -15 -17 -14 -18 30 -18 l47 0 0 -159 c0 -88 -3
-162 -7 -164 -5 -3 -34 -8 -65 -11 l-58 -7 0 95 c0 106 -6 115 -76 101 l-34
-6 0 -113 0 -112 -57 -18 c-32 -10 -64 -21 -70 -23 -10 -4 -13 46 -13 231 l0
236 160 0 c88 0 160 -3 160 -7z m1370 -8 c0 -11 7 -14 25 -9 19 5 25 2 25 -10
0 -9 6 -16 13 -16 14 0 24 -231 10 -252 -4 -7 -6 -68 -4 -135 l3 -123 -26 0
c-14 0 -26 -4 -26 -10 0 -6 -71 -10 -194 -10 l-193 0 -105 49 c-58 27 -140 62
-182 77 l-76 27 0 132 c0 150 3 145 -83 145 -100 0 -97 3 -97 -121 0 -122 6
-115 -84 -103 l-46 7 0 158 0 159 47 0 c44 0 45 1 30 18 -10 10 -17 22 -17 25
0 4 221 7 490 7 432 0 490 -2 490 -15z m1560 8 c0 -3 -7 -15 -17 -25 -15 -17
-14 -18 30 -18 l47 0 0 -159 0 -159 -62 -9 -63 -8 -3 111 c-3 127 0 124 -99
124 -86 0 -83 5 -83 -144 l0 -133 -97 -38 c-54 -21 -134 -56 -177 -77 l-80
-38 -198 0 c-125 0 -198 4 -198 10 0 6 -12 10 -26 10 l-27 0 5 125 c3 72 1
128 -4 131 -15 10 -6 254 10 254 6 0 12 7 12 16 0 12 6 15 25 10 18 -5 25 -2
25 9 0 13 58 15 490 15 270 0 490 -3 490 -7z m710 -227 l0 -235 -67 23 -68 23
-3 111 -3 111 -33 7 c-70 13 -76 4 -76 -103 l0 -95 -47 6 c-90 13 -83 -2 -83
177 l0 159 47 0 c44 0 45 1 30 18 -10 10 -17 22 -17 25 0 4 72 7 160 7 l160 0
0 -234z m350 -56 l0 -290 -46 0 c-32 0 -77 14 -155 47 l-109 47 0 243 0 243
155 0 155 0 0 -290z m390 253 c0 -105 -47 -478 -67 -529 -4 -11 -35 -14 -144
-14 l-139 0 0 290 0 290 175 0 175 0 0 -37z m-4110 -173 l0 -160 -75 0 -75 0
0 160 0 160 75 0 75 0 0 -160z m1566 -2 c-2 -90 -4 -205 -5 -255 -1 -86 -3
-93 -21 -93 -11 0 -20 -4 -20 -10 0 -5 -7 -10 -15 -10 -13 0 -15 33 -15 235 0
270 4 258 -100 258 -104 0 -100 12 -100 -258 0 -202 -2 -235 -15 -235 -8 0
-15 5 -15 10 0 6 -9 10 -20 10 -18 0 -20 7 -21 93 -1 50 -3 165 -5 255 l-3
162 179 0 179 0 -3 -162z m1364 2 l0 -160 -75 0 -75 0 0 160 0 160 75 0 75 0
0 -160z m-2695 -205 c131 -30 273 -84 486 -185 219 -105 368 -161 484 -181 41
-7 128 -9 228 -6 230 7 298 27 652 195 344 164 469 197 745 197 274 0 391 -30
760 -195 226 -100 334 -141 455 -171 103 -25 306 -35 404 -20 40 6 75 10 77 8
2 -1 -3 -25 -10 -52 -15 -61 -18 -62 -209 -64 -218 -2 -351 34 -682 182 -230
102 -358 151 -468 177 -260 62 -533 46 -796 -45 -55 -19 -194 -80 -308 -134
-335 -159 -482 -198 -708 -188 -201 10 -312 46 -670 215 -307 146 -465 186
-730 186 -253 -1 -399 -40 -759 -201 -354 -159 -489 -196 -711 -194 -182 1
-195 5 -212 65 -8 26 -13 50 -11 52 2 2 33 -1 68 -6 99 -14 246 -12 351 6 135
23 263 68 519 182 242 107 395 161 530 186 109 20 411 15 515 -9z m-45 -122
c135 -22 278 -71 475 -164 368 -175 471 -208 685 -216 240 -9 371 25 711 188
345 164 514 210 774 211 258 1 398 -38 815 -225 324 -145 541 -194 755 -169
44 5 82 8 84 6 1 -1 -4 -25 -13 -52 -14 -42 -21 -51 -48 -56 -63 -12 -239 -6
-336 13 -134 26 -218 56 -482 173 -392 173 -507 203 -780 202 -278 0 -398 -33
-775 -209 -347 -163 -440 -189 -665 -188 -216 0 -337 34 -650 183 -102 49
-220 103 -263 120 -320 126 -685 131 -1007 15 -41 -15 -172 -70 -290 -122
-350 -155 -490 -193 -706 -193 -143 0 -157 5 -174 64 -7 26 -11 48 -9 50 2 2
36 -1 74 -6 85 -11 240 -3 343 18 118 23 261 75 479 173 109 49 244 105 299
124 236 82 452 101 704 60z m1050 -134 l0 -91 -32 7 c-71 14 -68 10 -68 96 l0
79 50 0 50 0 0 -91z m400 12 c0 -44 -3 -82 -7 -84 -5 -3 -27 -8 -50 -12 l-43
-7 0 91 0 91 50 0 50 0 0 -79z m-2531 55 c-8 -9 -226 -95 -276 -109 l-53 -16
-15 51 c-24 84 -36 78 167 78 100 0 179 -2 177 -4z m2011 -61 c0 -58 -2 -65
-19 -65 -27 0 -144 43 -243 90 l-83 38 173 1 172 1 0 -65z m400 30 l0 -35
-130 0 -130 0 0 35 0 35 130 0 130 0 0 -35z m400 -9 c-77 -35 -239 -96 -256
-96 -2 0 -4 32 -4 70 l0 70 178 0 177 0 -95 -44z m2110 31 c0 -7 -7 -36 -15
-65 l-16 -51 -97 34 c-53 18 -126 47 -162 64 l-65 30 178 0 c140 1 177 -2 177
-12z m-3803 -56 c143 -30 248 -69 483 -181 113 -53 239 -110 280 -124 256 -93
517 -98 763 -16 50 17 191 78 312 135 369 173 495 208 765 209 262 1 388 -32
773 -203 366 -163 484 -194 712 -189 74 2 135 2 135 1 0 -1 -9 -27 -21 -58
l-20 -55 -98 0 c-207 0 -358 42 -711 198 -366 162 -468 190 -712 199 -298 11
-450 -28 -838 -212 -339 -161 -450 -190 -695 -182 -219 7 -315 37 -690 215
-307 146 -431 177 -710 177 -283 0 -385 -27 -786 -204 -354 -156 -458 -185
-668 -186 l-134 0 -18 52 -18 52 127 0 c244 -2 361 29 717 189 290 129 433
176 615 202 101 14 321 4 437 -19z m1293 -55 c0 -43 -9 -46 -123 -46 -125 0
-137 4 -137 46 l0 34 130 0 130 0 0 -34z m-1260 -79 c134 -32 244 -74 478
-186 311 -148 433 -183 647 -184 229 -1 351 34 689 195 320 153 470 196 706
205 269 11 455 -35 820 -202 318 -145 448 -184 657 -193 l143 -7 -25 -53 -24
-52 -69 0 c-172 0 -340 49 -668 195 -376 167 -530 208 -779 208 -262 0 -416
-42 -768 -207 -249 -117 -359 -158 -491 -181 -256 -44 -480 0 -811 160 -88 42
-203 95 -255 117 -213 88 -461 128 -673 109 -205 -20 -353 -65 -653 -201 -321
-146 -459 -188 -645 -197 l-115 -6 -20 49 c-10 27 -20 52 -22 55 -1 3 64 9
145 12 220 8 306 34 682 201 262 117 399 161 586 190 17 2 104 3 195 1 130 -3
187 -9 270 -28z m-21 -122 c130 -29 251 -75 456 -172 342 -162 437 -192 646
-200 244 -10 381 25 704 179 362 173 480 207 741 215 133 4 192 2 270 -11 134
-23 324 -88 534 -184 96 -43 185 -82 198 -86 12 -4 22 -11 22 -16 0 -15 -93
-174 -162 -277 -371 -556 -940 -958 -1588 -1123 -248 -63 -347 -74 -665 -75
-310 0 -382 7 -619 60 -378 86 -791 288 -1106 543 -196 160 -400 385 -544 602
-89 135 -159 261 -149 270 17 16 442 199 528 228 78 26 172 49 265 66 60 11
397 -3 469 -19z m-1260 -348 c194 -354 452 -651 777 -893 701 -523 1629 -679
2458 -413 671 214 1248 685 1576 1287 41 76 47 82 70 77 14 -4 27 -8 28 -10 5
-4 -57 -116 -121 -220 -145 -235 -406 -531 -617 -699 -206 -164 -490 -330
-728 -425 -501 -200 -1079 -248 -1615 -135 -340 72 -668 210 -959 403 -180
121 -279 202 -434 356 -205 205 -346 391 -488 648 l-37 67 23 9 c13 6 25 10
28 10 3 1 20 -27 39 -62z m-35 -99 c223 -385 525 -706 896 -953 129 -86 425
-235 574 -290 803 -295 1704 -207 2444 239 404 243 755 608 996 1034 32 56 61
102 65 102 3 0 51 -12 106 -26 62 -16 141 -28 208 -31 59 -3 107 -9 107 -12 0
-14 -117 -234 -177 -334 -232 -385 -586 -758 -957 -1006 -451 -302 -899 -469
-1441 -537 -188 -24 -567 -24 -750 0 -312 40 -542 98 -810 203 -719 283 -1319
819 -1682 1503 -102 194 -105 176 29 183 73 3 145 14 203 30 50 13 95 25 101
26 6 0 46 -59 88 -131z"/>
<path d="M3206 6523 c-16 -3 -24 -8 -18 -12 11 -7 -63 -111 -79 -111 -12 0
-11 94 1 106 6 6 -9 8 -41 5 -40 -2 -47 -5 -35 -15 17 -13 27 -96 11 -96 -16
0 -97 85 -89 93 4 4 -15 7 -42 7 l-49 0 32 -17 c32 -19 113 -89 113 -99 0 -13
-94 -135 -118 -155 l-27 -20 40 3 c37 3 44 8 95 81 l55 78 7 -53 c5 -40 3 -59
-9 -77 -15 -23 -15 -24 8 -18 13 4 37 7 52 7 26 0 27 1 13 16 -11 10 -16 34
-16 72 l1 57 64 -67 c60 -63 68 -68 107 -68 37 1 40 2 23 12 -24 12 -155 139
-155 149 0 13 72 94 99 111 28 19 23 20 -43 11z"/>
<path d="M3426 6395 c-32 -75 -66 -140 -75 -145 -12 -7 -7 -9 21 -10 31 0 35
3 31 19 -3 10 3 33 11 50 14 27 22 31 55 31 44 0 58 -13 67 -59 5 -23 3 -36
-7 -42 -9 -6 7 -9 46 -9 43 1 55 3 44 10 -9 5 -41 73 -70 150 -29 77 -55 140
-59 140 -3 0 -32 -61 -64 -135z m72 -2 c12 -38 7 -45 -27 -36 -35 8 -34 6 -16
49 17 41 26 38 43 -13z"/>
<path d="M3714 6497 c19 -14 19 -18 4 -133 -12 -86 -21 -122 -32 -129 -25 -15
107 -35 151 -23 55 15 68 90 21 122 -20 14 -20 14 1 35 48 48 11 115 -69 126
-25 4 -56 9 -70 11 -24 5 -24 5 -6 -9z m106 -37 c11 -11 20 -31 20 -44 0 -30
-27 -59 -47 -52 -8 3 -17 6 -19 6 -6 0 -5 62 2 88 8 27 18 28 44 2z m-6 -131
c45 -36 29 -109 -24 -109 -38 0 -43 10 -35 75 8 61 18 66 59 34z"/>
<path d="M2660 6449 c-61 -17 -63 -18 -52 -32 6 -7 22 -64 37 -127 25 -108 25
-115 9 -127 -13 -10 -14 -13 -3 -13 26 1 114 28 92 29 -24 1 -26 6 -62 161
-11 46 -17 88 -15 92 3 4 16 8 29 8 55 0 88 -103 43 -134 -18 -13 -19 -16 -6
-16 9 0 29 11 45 24 22 19 28 32 28 66 0 70 -51 94 -145 69z"/>
<path d="M4036 6446 c3 -8 -9 -67 -27 -131 -26 -90 -38 -119 -53 -125 -17 -6
-14 -8 18 -14 20 -4 45 -10 54 -13 14 -6 15 -4 5 9 -10 12 -10 25 2 66 9 28
19 53 23 55 4 2 36 -5 71 -15 63 -19 63 -20 58 -51 -9 -54 -26 -87 -44 -88
-20 -1 43 -27 68 -28 12 -1 15 6 12 23 -6 27 41 199 62 232 13 20 12 22 -13
27 -15 3 -36 9 -47 13 -18 7 -18 6 -6 -9 11 -14 11 -25 1 -62 -7 -25 -16 -47
-20 -50 -6 -4 -140 33 -140 39 0 1 7 26 15 54 11 36 21 52 33 53 12 0 -59 28
-75 29 -1 0 0 -6 3 -14z"/>
<path d="M2380 6370 c-41 -16 -65 -29 -53 -29 18 -1 27 -17 58 -112 20 -60 35
-119 32 -130 -6 -24 -5 -24 79 4 60 21 69 27 72 51 l3 26 -26 -25 c-17 -18
-34 -25 -52 -23 -23 2 -30 11 -42 51 -17 55 -8 70 40 64 26 -3 26 -2 16 27 -8
21 -12 26 -15 15 -3 -15 -30 -29 -58 -29 -10 0 -34 62 -34 88 0 14 57 33 77
25 11 -4 14 -2 11 8 -7 21 -26 19 -108 -11z"/>
<path d="M4419 6337 c8 -10 -2 -46 -39 -141 -28 -70 -50 -129 -50 -132 0 -3
57 25 126 62 69 36 127 65 129 63 2 -2 -13 -43 -32 -91 -24 -60 -40 -88 -52
-88 -9 -1 7 -10 34 -20 61 -24 58 -24 44 -2 -9 14 -2 41 35 136 25 65 46 122
46 127 0 6 -56 -20 -125 -56 -69 -37 -125 -62 -125 -57 0 20 61 158 75 168 11
8 4 14 -32 27 -32 12 -42 13 -34 4z"/>
<path d="M2094 6127 c6 -107 4 -152 -4 -162 -9 -10 -8 -20 4 -42 l15 -28 1 28
c0 26 8 32 95 73 105 49 122 52 141 27 11 -16 12 -14 5 12 -4 18 -15 31 -27
33 -10 2 -59 43 -109 91 -142 137 -129 141 -121 -32z m95 -11 l73 -74 -57 -26
c-83 -38 -85 -37 -85 37 0 34 -3 79 -6 100 -4 20 -5 37 -3 37 3 0 37 -33 78
-74z"/>
<path d="M4805 6167 c3 -6 -24 -63 -60 -126 -37 -62 -64 -115 -61 -118 3 -3
64 15 136 41 73 25 130 42 128 38 -18 -47 -95 -162 -107 -162 -9 0 2 -11 24
-25 44 -27 63 -32 46 -12 -8 10 5 42 55 131 36 65 63 120 61 123 -3 2 -62 -16
-132 -42 -70 -25 -129 -44 -131 -42 -7 7 93 162 104 160 21 -5 13 5 -24 26
-41 24 -45 25 -39 8z"/>
<path d="M4910 6135 c0 -23 37 -55 64 -55 35 0 42 18 9 22 -17 2 -32 12 -38
26 -11 25 -35 30 -35 7z"/>
<path d="M1707 6042 c-3 -16 -11 -76 -18 -135 -7 -59 -16 -107 -20 -107 -14 0
-101 151 -95 165 3 9 -10 5 -34 -11 -41 -28 -49 -36 -28 -31 7 1 45 -47 85
-108 40 -60 76 -111 81 -113 5 -1 16 61 26 138 10 77 19 140 21 140 9 0 99
-157 98 -172 -2 -15 4 -14 39 9 35 24 38 28 20 34 -10 4 -50 55 -88 113 -37
58 -71 106 -75 106 -4 0 -9 -13 -12 -28z"/>
<path d="M1655 6039 c-11 -11 -27 -18 -37 -16 -20 6 -33 -22 -14 -29 21 -8 73
22 79 46 6 25 -2 25 -28 -1z"/>
<path d="M5254 5852 c0 -64 -33 -199 -52 -218 -10 -11 -25 -14 -45 -10 l-30 6
26 -20 c14 -11 28 -20 31 -20 3 0 63 32 132 70 94 53 131 69 147 64 17 -5 15
-1 -9 20 -35 29 -45 32 -41 14 2 -13 -130 -94 -139 -85 -8 7 25 147 37 163 8
10 0 20 -41 51 -13 10 -15 4 -16 -35z"/>
<path d="M1368 5696 l-3 -148 -63 73 c-34 41 -60 79 -57 86 2 8 -11 1 -30 -14
-29 -23 -32 -29 -17 -34 9 -4 55 -51 102 -105 l85 -99 5 143 5 143 36 -38 c64
-68 90 -106 85 -120 -4 -8 12 0 34 17 42 33 49 43 26 34 -8 -3 -45 30 -96 88
-46 51 -89 99 -96 107 -11 12 -14 -9 -16 -133z"/>
<path d="M5546 5647 c10 -26 -162 -189 -194 -183 -21 3 -20 0 14 -35 41 -42
46 -45 38 -26 -2 7 15 31 39 55 l43 42 52 -53 53 -54 -45 -41 c-32 -29 -51
-40 -63 -35 -10 3 -1 -12 22 -36 21 -22 40 -41 41 -41 1 0 0 8 -2 18 -7 26
169 197 193 188 10 -4 3 9 -17 29 -31 32 -36 34 -40 17 -3 -10 -21 -33 -41
-50 l-36 -31 -46 47 c-26 26 -47 52 -47 58 0 20 68 77 84 71 24 -10 19 1 -19
40 -20 21 -33 29 -29 20z"/>
<path d="M1060 5540 c-12 -16 -17 -30 -11 -30 7 0 11 -27 11 -70 0 -38 -3 -70
-7 -70 -18 0 -71 64 -66 79 4 10 3 12 -3 6 -66 -73 -65 -72 -45 -71 10 1 60
-35 111 -78 68 -59 90 -84 87 -98 -7 -26 -3 -23 33 22 17 22 26 38 18 35 -7
-3 -36 14 -63 38 l-50 44 106 8 c104 7 107 8 129 38 21 27 21 30 4 23 -30 -12
-218 -25 -228 -16 -4 4 -7 45 -5 89 2 45 3 81 2 81 -1 0 -11 -13 -23 -30z"/>
<path d="M5816 5346 c8 -21 -181 -170 -207 -163 -27 7 -23 -2 17 -48 20 -22
33 -34 29 -28 -10 20 4 36 94 107 83 65 92 70 120 67 7 -2 -2 16 -20 38 -35
44 -42 49 -33 27z"/>
<path d="M782 5203 c-31 -45 -36 -57 -24 -49 6 4 22 1 34 -5 48 -25 183 -130
189 -146 4 -12 17 1 47 47 47 70 51 96 21 134 -30 39 -87 37 -129 -5 -28 -29
-33 -31 -55 -19 -36 19 -66 50 -60 61 14 22 -5 7 -23 -18z m236 -49 c30 -20
29 -94 -1 -94 -18 0 -107 64 -107 77 0 32 71 43 108 17z"/>
<path d="M5940 5185 c0 -27 -185 -148 -217 -142 -22 4 -22 4 4 -42 55 -99 120
-128 162 -75 12 15 21 37 21 50 0 19 5 23 30 22 74 -2 90 66 35 152 -23 38
-35 49 -35 35z m38 -97 c-2 -20 -13 -38 -30 -51 -27 -20 -28 -20 -48 -2 -27
25 -26 31 18 59 51 34 64 33 60 -6z m-102 -64 c9 -33 -9 -71 -40 -86 -20 -9
-30 -8 -51 6 -35 23 -31 40 18 75 52 37 65 38 73 5z"/>
<path d="M672 5037 c-64 -70 -80 -152 -42 -215 23 -37 88 -71 136 -72 95 0
204 172 125 198 -10 3 -10 0 -1 -17 29 -55 -29 -131 -101 -131 -80 0 -159 63
-159 126 0 47 59 109 95 100 33 -8 32 0 -4 18 -26 14 -30 14 -49 -7z"/>
<path d="M6093 4948 c7 -21 -9 -34 -121 -97 -53 -30 -99 -50 -108 -47 -10 4
-5 -13 17 -52 43 -77 48 -82 73 -82 19 1 19 2 3 11 -15 9 -47 58 -47 73 0 7
85 56 97 56 13 0 35 -49 28 -61 -8 -12 2 -11 25 1 18 10 18 11 -6 35 -13 13
-24 28 -24 34 0 12 62 51 82 51 20 0 42 -44 35 -69 -4 -18 -2 -19 14 -10 10 5
19 12 19 15 0 3 -21 40 -46 82 -26 42 -44 70 -41 60z"/>
<path d="M496 4723 c-19 -41 -20 -44 -3 -37 7 2 34 -5 60 -16 54 -24 54 -26
11 -112 l-24 -47 -37 15 c-21 8 -45 24 -54 34 -15 18 -17 17 -33 -16 -19 -42
-20 -45 -3 -38 8 3 64 -18 125 -47 82 -38 112 -57 114 -72 2 -14 9 -5 25 32
12 29 17 48 10 43 -14 -12 -117 27 -117 44 0 24 50 124 62 124 7 -1 33 -11 58
-23 34 -16 44 -27 42 -42 -1 -11 9 0 22 25 31 55 31 59 7 53 -22 -6 -206 72
-232 98 -15 15 -18 14 -33 -18z"/>
<path d="M6135 4636 c-55 -27 -115 -49 -132 -50 -18 -1 -33 -2 -33 -2 0 -7 42
-94 45 -94 2 0 2 6 -1 14 -7 18 17 34 135 86 75 34 95 39 102 29 15 -23 5 -61
-21 -80 -42 -29 -67 -32 -89 -10 -12 12 -21 16 -21 11 0 -25 50 -60 85 -60 42
0 85 36 85 72 0 13 -12 48 -28 78 l-27 55 -100 -49z"/>
<path d="M6181 4382 c-19 -9 -44 -30 -55 -45 -28 -38 -28 -118 -1 -172 17 -34
25 -40 55 -42 l35 -2 -33 15 c-39 17 -66 72 -57 114 11 52 97 110 163 110 68
0 119 -89 86 -151 -15 -30 -15 -31 1 -25 9 3 21 6 27 6 16 0 4 81 -18 126 -38
77 -127 106 -203 66z"/>
<path d="M425 4360 c-45 -10 -71 -30 -94 -71 -37 -66 -22 -156 32 -192 102
-67 225 -17 243 100 5 37 3 55 -12 82 -34 62 -103 95 -169 81z m90 -60 c39
-15 75 -59 75 -92 0 -19 -10 -40 -29 -59 -26 -26 -37 -29 -89 -29 -45 0 -67 5
-93 23 -64 43 -72 97 -21 144 20 18 36 23 78 23 29 0 64 -4 79 -10z"/>
<path d="M6418 4050 c-15 -4 -74 -16 -130 -25 -57 -9 -107 -21 -111 -25 -5 -4
45 -38 110 -75 65 -37 120 -69 122 -71 9 -8 -7 -12 -97 -25 -81 -11 -95 -11
-103 1 -10 15 -9 7 6 -66 5 -23 8 -24 18 -11 8 11 56 24 140 38 70 13 127 26
127 30 0 4 -52 37 -115 74 -63 37 -115 70 -115 75 0 4 41 13 91 20 77 11 92
11 101 -1 7 -10 8 -7 4 11 -3 14 -6 33 -6 43 0 19 -2 19 -42 7z"/>
<path d="M245 3956 c-21 -78 -15 -123 23 -164 76 -81 219 -57 251 41 18 52 18
127 1 137 -31 20 -41 10 -19 -19 55 -74 -31 -173 -136 -155 -83 14 -115 44
-115 109 0 29 8 45 34 71 19 19 28 34 21 34 -7 0 -20 3 -28 6 -11 4 -19 -11
-32 -60z"/>
<path d="M6478 3687 c7 -7 13 -29 14 -48 3 -34 3 -34 -47 -41 -27 -3 -85 -7
-127 -7 -65 -1 -77 2 -81 17 -3 11 -5 8 -5 -8 -1 -29 15 -113 17 -89 1 24 15
27 139 35 l109 7 5 -34 c3 -19 2 -39 -3 -45 -6 -8 -3 -13 11 -17 20 -5 20 -2
14 106 -7 134 -8 137 -35 137 -17 0 -19 -3 -11 -13z"/>
<path d="M225 3655 c-14 -13 -25 -36 -26 -52 0 -15 -3 -50 -5 -78 -3 -33 -2
-45 5 -36 7 11 31 13 125 7 130 -8 143 -11 149 -34 2 -10 5 9 8 40 3 45 1 54
-9 46 -15 -13 -241 -3 -255 11 -9 9 8 51 27 63 6 4 27 8 47 8 40 0 76 -30 64
-52 -6 -10 -5 -10 4 -2 17 16 3 61 -26 84 -35 27 -78 26 -108 -5z"/>
<path d="M446 3365 c8 -13 14 -36 12 -52 -3 -27 -6 -28 -60 -31 -33 -2 -58 1
-58 7 0 5 -3 16 -6 24 -3 8 2 22 11 31 15 15 14 16 -20 16 -33 0 -35 -1 -21
-16 9 -8 16 -26 16 -40 0 -26 -27 -38 -76 -32 -26 3 -29 7 -32 42 -2 24 2 42
10 47 9 6 6 9 -9 9 -22 0 -23 -3 -23 -87 1 -65 3 -83 11 -70 9 15 27 17 139
17 114 0 129 -2 133 -17 3 -10 4 22 4 71 -2 82 -4 89 -25 97 -21 8 -22 8 -6
-16z"/>
<path d="M6240 3287 c0 -48 2 -87 4 -87 2 0 13 -3 23 -6 15 -6 16 -4 6 7 -7 7
-13 30 -13 51 0 32 4 39 25 44 14 3 41 3 60 0 32 -6 35 -10 35 -41 0 -18 -6
-36 -12 -38 -7 -3 5 -6 27 -6 32 0 36 2 23 10 -11 6 -18 22 -18 39 0 30 1 30
55 30 l55 0 0 -40 c0 -27 -6 -42 -17 -49 -15 -9 -14 -10 10 -11 l27 0 -1 88
c0 48 -3 81 -6 75 -3 -10 -38 -13 -126 -13 -98 0 -124 3 -139 17 -17 15 -18
13 -18 -70z"/>
<path d="M470 3126 c0 -8 -30 -38 -66 -65 l-66 -50 -37 15 c-20 9 -43 18 -51
21 -8 4 -23 13 -32 21 -17 14 -18 13 -18 -18 0 -25 3 -31 15 -26 9 3 34 -2 57
-11 l41 -17 -33 -28 c-19 -15 -40 -28 -47 -28 -14 0 -17 -37 -7 -65 6 -14 8
-14 19 2 7 10 37 35 67 56 l55 37 59 -26 c32 -14 66 -34 74 -45 15 -18 15 -17
12 19 -3 31 -7 39 -21 35 -9 -2 -36 4 -60 14 l-44 19 43 32 c24 17 47 29 52
26 4 -3 8 15 8 40 0 25 -4 48 -10 51 -5 3 -10 -1 -10 -9z"/>
<path d="M6487 3089 c9 -9 8 -74 -2 -86 -3 -5 -226 26 -236 32 -5 4 -9 13 -9
22 0 33 -14 1 -20 -46 -5 -43 -4 -48 10 -39 11 7 52 6 131 -3 l114 -14 -2 -40
c-2 -21 -8 -42 -14 -45 -7 -5 -4 -10 7 -14 9 -3 19 -4 21 -2 3 2 11 52 19 111
7 58 16 110 19 115 5 8 -17 20 -38 20 -8 0 -8 -3 0 -11z"/>
<path d="M2215 4973 c-26 -65 -56 -133 -66 -150 l-18 -33 28 0 c24 0 28 4 24
19 -3 10 3 33 11 50 15 27 21 31 60 31 38 0 45 -3 55 -28 7 -16 13 -38 14 -50
1 -18 7 -22 39 -22 l37 0 -19 33 c-10 17 -40 85 -65 150 -26 64 -48 117 -50
117 -1 0 -24 -53 -50 -117z m58 -20 l17 -43 -35 0 c-19 0 -35 4 -35 9 0 12 31
84 34 80 1 -2 10 -23 19 -46z"/>
<path d="M3630 4963 c-28 -71 -58 -138 -66 -150 -14 -22 -13 -23 15 -23 24 0
28 4 24 19 -3 10 3 33 11 50 15 28 21 31 60 31 40 0 45 -3 55 -31 6 -18 11
-40 11 -50 0 -16 8 -19 42 -19 38 0 40 1 26 18 -8 9 -39 77 -68 150 -29 72
-54 132 -55 132 -1 0 -26 -57 -55 -127z m63 -10 l17 -43 -35 0 c-19 0 -35 4
-35 9 0 12 31 84 34 80 1 -2 10 -23 19 -46z"/>
<path d="M1977 5060 c-20 -16 -27 -30 -27 -56 0 -37 13 -54 83 -107 60 -45 45
-102 -25 -95 -23 2 -36 10 -45 28 l-13 25 0 -31 c0 -36 13 -44 67 -44 25 0 43
8 64 29 49 50 35 95 -47 152 -39 27 -45 35 -42 62 2 21 9 33 21 35 30 6 67 -7
67 -23 0 -8 5 -15 10 -15 6 0 10 12 10 28 0 25 -3 27 -48 30 -37 2 -55 -2 -75
-18z"/>
<path d="M2470 5072 c-23 -5 -31 -10 -22 -15 15 -10 17 -203 2 -241 -9 -26 -9
-26 38 -26 37 1 43 3 30 11 -16 9 -18 26 -18 130 0 131 7 146 55 115 46 -31
43 -114 -6 -127 -22 -6 -22 -7 7 -8 73 -2 109 114 46 148 -27 14 -90 20 -132
13z"/>
<path d="M2687 5058 c21 -24 15 -244 -7 -258 -10 -7 13 -10 71 -10 79 0 87 2
92 21 4 16 3 18 -8 9 -8 -6 -31 -10 -52 -8 l-38 3 -3 58 -3 57 34 0 c18 0 38
-5 45 -12 9 -9 12 -4 12 22 0 26 -3 31 -12 22 -7 -7 -27 -12 -46 -12 l-33 0 3
53 c3 51 4 52 36 55 18 2 40 -2 48 -9 11 -9 14 -8 14 8 0 17 -8 19 -84 18 -79
0 -83 -1 -69 -17z"/>
<path d="M2909 5067 c16 -16 15 -264 -1 -270 -7 -3 9 -6 37 -6 38 -1 46 2 37
11 -7 7 -12 34 -12 60 0 67 26 66 70 -2 37 -57 55 -70 100 -70 l32 0 -31 26
c-17 14 -44 43 -61 64 l-32 40 21 26 c27 35 27 85 0 110 -16 15 -38 19 -96 20
-54 1 -72 -1 -64 -9z m115 -23 c42 -42 27 -114 -24 -114 -30 0 -30 0 -30 58 0
32 3 62 7 65 11 12 31 8 47 -9z"/>
<path d="M3216 5059 c17 -19 20 -219 4 -250 -10 -18 -7 -19 69 -19 63 0 80 3
85 16 9 24 7 29 -6 16 -7 -7 -29 -12 -50 -12 -42 0 -52 18 -46 81 3 29 7 34
31 37 16 2 35 -2 43 -9 12 -9 14 -6 14 21 0 27 -2 30 -14 21 -8 -7 -27 -11
-43 -9 -27 3 -28 6 -28 53 0 49 0 50 33 53 18 2 40 -2 48 -9 11 -9 14 -8 14 8
0 17 -8 19 -84 18 -76 0 -83 -2 -70 -16z"/>
<path d="M3850 5066 c6 -6 10 -56 10 -113 0 -99 1 -104 29 -135 27 -30 34 -33
90 -33 53 0 64 4 88 28 27 26 28 33 33 142 l5 115 -25 0 c-19 0 -21 -3 -12
-12 8 -8 12 -46 12 -106 0 -90 -1 -95 -29 -123 -49 -49 -121 -36 -137 25 -3
13 -4 66 -2 119 l3 95 -37 4 c-24 2 -34 0 -28 -6z"/>
<path d="M4230 5073 l-35 -4 3 -130 c3 -110 1 -133 -13 -142 -28 -21 163 -15
202 6 86 46 92 198 10 252 -24 16 -111 25 -167 18z m124 -34 c55 -43 71 -119
41 -184 -20 -41 -51 -57 -101 -53 l-39 3 -3 128 -3 127 39 0 c25 0 49 -8 66
-21z"/>
<path d="M4506 5067 c19 -11 21 -262 2 -271 -7 -3 25 -4 72 -3 77 2 85 4 87
22 2 11 0 14 -3 8 -3 -8 -24 -13 -50 -13 l-44 0 0 60 c0 59 0 60 28 60 15 0
33 -5 40 -12 9 -9 12 -4 11 23 0 18 -3 28 -6 22 -2 -7 -20 -13 -39 -13 l-35 0
3 53 c3 49 5 52 31 55 18 2 37 -4 49 -15 20 -18 20 -17 17 7 -4 24 -6 25 -91
25 -48 0 -80 -4 -72 -8z"/>
<path d="M4725 5003 c3 -43 9 -91 12 -108 5 -26 7 -27 13 -10 4 11 10 59 14
108 l7 87 -26 0 -27 0 7 -77z"/>
<path d="M4726 4815 c-6 -17 16 -31 33 -21 13 9 2 36 -14 36 -7 0 -16 -7 -19
-15z"/>
<path d="M768 3824 c-10 -3 -18 -14 -18 -25 0 -23 15 -25 24 -4 4 10 20 15 50
15 37 0 48 -4 57 -22 12 -22 12 -22 19 -3 4 11 4 24 0 28 -9 10 -108 18 -132
11z"/>
<path d="M793 3753 c-22 -4 -23 -8 -23 -129 l0 -124 55 0 55 0 0 124 c0 120
-1 124 -22 130 -24 6 -29 6 -65 -1z"/>
<path d="M787 3483 c-3 -4 -4 -19 -3 -33 2 -37 31 -33 31 4 0 28 -18 46 -28
29z m18 -13 c3 -5 1 -10 -4 -10 -6 0 -11 5 -11 10 0 6 2 10 4 10 3 0 8 -4 11
-10z m0 -30 c3 -5 1 -10 -4 -10 -6 0 -11 5 -11 10 0 6 2 10 4 10 3 0 8 -4 11
-10z"/>
<path d="M847 3483 c-3 -4 -4 -19 -3 -33 2 -37 31 -33 31 4 0 28 -18 46 -28
29z m18 -13 c3 -5 1 -10 -4 -10 -6 0 -11 5 -11 10 0 6 2 10 4 10 3 0 8 -4 11
-10z m0 -30 c3 -5 1 -10 -4 -10 -6 0 -11 5 -11 10 0 6 2 10 4 10 3 0 8 -4 11
-10z"/>
<path d="M1113 3823 c-15 -3 -23 -12 -23 -24 0 -23 15 -25 24 -4 4 11 22 15
71 15 49 0 67 -4 71 -15 8 -21 24 -19 24 4 0 13 -10 20 -31 25 -34 6 -100 6
-136 -1z"/>
<path d="M1128 3753 c-16 -4 -18 -19 -18 -124 l0 -119 75 0 75 0 0 119 c0 115
-1 119 -22 125 -26 6 -84 6 -110 -1z"/>
<path d="M1109 3480 c-7 -5 -10 -12 -6 -17 5 -4 12 -1 17 7 7 10 10 11 10 3 0
-7 5 -13 10 -13 6 0 10 4 10 9 0 14 -25 20 -41 11z"/>
<path d="M1169 3480 c-7 -5 -10 -12 -6 -17 5 -4 12 -1 17 7 7 10 10 11 10 3 0
-7 5 -13 10 -13 6 0 10 4 10 9 0 14 -25 20 -41 11z"/>
<path d="M1229 3480 c-7 -5 -10 -12 -6 -17 5 -4 12 -1 17 7 7 10 10 11 10 3 0
-7 5 -13 10 -13 6 0 10 4 10 9 0 14 -25 20 -41 11z"/>
<path d="M1113 3453 c-7 -3 -13 -8 -13 -13 0 -12 25 -19 39 -11 15 10 -8 31
-26 24z"/>
<path d="M1170 3446 c-8 -10 -7 -15 2 -18 16 -6 38 1 38 12 0 15 -28 19 -40 6z"/>
<path d="M1230 3446 c-8 -10 -7 -15 2 -18 16 -6 38 1 38 12 0 15 -28 19 -40 6z"/>
<path d="M1523 3823 c-15 -3 -23 -12 -23 -24 0 -23 15 -25 24 -4 10 27 106 17
106 -11 0 -21 17 -17 23 5 8 31 -57 48 -130 34z"/>
<path d="M1543 3750 c-22 -9 -23 -14 -23 -130 l0 -120 55 0 55 0 0 124 c0 120
-1 124 -22 130 -29 7 -38 7 -65 -4z"/>
<path d="M1537 3483 c-3 -4 -4 -19 -3 -33 2 -37 31 -33 31 4 0 28 -18 46 -28
29z m18 -13 c3 -5 1 -10 -4 -10 -6 0 -11 5 -11 10 0 6 2 10 4 10 3 0 8 -4 11
-10z m0 -30 c3 -5 1 -10 -4 -10 -6 0 -11 5 -11 10 0 6 2 10 4 10 3 0 8 -4 11
-10z"/>
<path d="M1597 3483 c-3 -4 -4 -19 -3 -33 2 -37 31 -33 31 4 0 28 -18 46 -28
29z m23 -13 c0 -5 -4 -10 -10 -10 -5 0 -10 5 -10 10 0 6 5 10 10 10 6 0 10 -4
10 -10z m0 -30 c0 -5 -4 -10 -10 -10 -5 0 -10 5 -10 10 0 6 5 10 10 10 6 0 10
-4 10 -10z"/>
<path d="M2173 3860 c-36 -21 -60 -61 -65 -106 -3 -25 1 -29 25 -32 15 -2 27
1 27 7 0 6 -9 11 -20 11 -45 0 -4 81 56 110 66 32 138 10 170 -51 20 -39 18
-59 -6 -59 -11 0 -20 -4 -20 -10 0 -5 14 -10 31 -10 31 0 31 1 26 36 -3 20
-13 47 -22 61 -40 61 -138 82 -202 43z"/>
<path d="M2533 3860 c-41 -25 -62 -56 -65 -100 -3 -32 0 -35 25 -38 15 -2 27
1 27 7 0 6 -9 11 -20 11 -48 0 -1 90 60 114 51 20 55 20 106 -4 58 -29 98
-110 54 -110 -11 0 -20 -4 -20 -10 0 -16 50 -12 56 4 10 26 -33 104 -68 126
-43 26 -113 26 -155 0z"/>
<path d="M2905 3870 c-42 -17 -85 -83 -85 -131 0 -13 7 -19 24 -19 14 0 28 5
31 10 3 6 -3 10 -14 10 -47 0 -6 86 54 114 63 30 136 2 170 -64 20 -39 19 -50
-5 -50 -11 0 -20 -4 -20 -10 0 -5 11 -10 25 -10 21 0 25 5 25 30 0 74 -62 130
-140 129 -25 0 -54 -4 -65 -9z"/>
<path d="M3295 3870 c-38 -16 -76 -66 -82 -109 -5 -39 -4 -41 20 -41 14 0 29
5 32 10 3 6 -3 10 -14 10 -30 0 -27 41 5 79 33 39 90 56 143 41 46 -12 91 -60
91 -96 0 -18 -5 -24 -21 -24 -11 0 -17 -4 -14 -10 3 -5 17 -10 31 -10 20 0 24
5 24 28 0 41 -32 93 -71 114 -35 19 -109 23 -144 8z"/>
<path d="M3673 3861 c-38 -24 -63 -68 -63 -111 0 -25 4 -30 25 -30 14 0 25 5
25 10 0 6 -9 10 -20 10 -24 0 -25 11 -5 50 34 66 107 94 170 64 60 -28 101
-114 54 -114 -11 0 -17 -4 -14 -10 3 -5 17 -10 31 -10 17 0 24 5 24 20 0 32
-25 83 -54 109 -37 35 -127 41 -173 12z"/>
<path d="M4032 3860 c-35 -22 -78 -100 -68 -126 6 -16 56 -20 56 -4 0 6 -9 10
-20 10 -44 0 -4 81 54 110 51 24 55 24 106 4 61 -24 108 -114 60 -114 -11 0
-20 -5 -20 -11 0 -6 12 -9 28 -7 24 3 27 6 24 38 -8 98 -131 154 -220 100z"/>
<path d="M4393 3860 c-40 -24 -62 -57 -70 -104 -5 -35 -5 -36 26 -36 17 0 31
5 31 10 0 6 -9 10 -20 10 -24 0 -26 20 -6 59 32 61 104 83 170 51 60 -29 101
-110 56 -110 -11 0 -20 -5 -20 -11 0 -6 12 -9 28 -7 23 3 27 7 24 32 -11 104
-129 161 -219 106z"/>
<path d="M2194 3789 c-16 -18 -20 -40 -22 -145 l-4 -124 81 0 81 0 0 119 c0
105 -2 121 -21 145 -27 34 -86 37 -115 5z"/>
<path d="M2551 3784 c-19 -24 -21 -40 -21 -145 l0 -119 80 0 80 0 0 119 c0
105 -2 121 -21 145 -16 20 -29 26 -59 26 -30 0 -43 -6 -59 -26z"/>
<path d="M2911 3784 c-19 -24 -21 -40 -21 -145 l0 -119 81 0 81 0 -4 126 c-3
118 -4 127 -27 145 -35 28 -85 25 -110 -7z"/>
<path d="M3699 3791 c-23 -18 -24 -27 -27 -145 l-4 -126 81 0 81 0 0 119 c0
105 -2 121 -21 145 -25 32 -75 35 -110 7z"/>
<path d="M4051 3784 c-19 -24 -21 -40 -21 -145 l0 -119 80 0 80 0 0 119 c0
105 -2 121 -21 145 -16 20 -29 26 -59 26 -30 0 -43 -6 -59 -26z"/>
<path d="M4411 3784 c-19 -24 -21 -40 -21 -145 l0 -119 81 0 81 0 -4 124 c-2
105 -6 127 -22 145 -29 32 -88 29 -115 -5z"/>
<path d="M2186 3501 c-5 -8 0 -50 7 -58 2 -2 10 4 18 14 12 14 12 16 -1 11
-11 -4 -16 1 -17 16 0 11 1 15 4 9 5 -15 23 -18 23 -4 0 12 -28 22 -34 12z"/>
<path d="M2241 3501 c-9 -6 -10 -11 -2 -15 6 -4 11 -2 11 5 0 7 3 9 7 5 5 -4
0 -13 -10 -21 -15 -11 -15 -14 -2 -25 8 -7 15 -9 16 -4 0 5 2 19 5 31 4 25 -6
35 -25 24z"/>
<path d="M2297 3502 c-3 -4 -4 -17 -2 -28 2 -10 4 -23 4 -28 2 -19 28 16 27
36 -1 22 -20 36 -29 20z m23 -6 c0 -3 -4 -8 -10 -11 -5 -3 -10 -1 -10 4 0 6 5
11 10 11 6 0 10 -2 10 -4z"/>
<path d="M2541 3501 c-9 -6 -10 -11 -2 -15 6 -4 11 -2 11 5 0 7 3 9 7 5 5 -4
1 -13 -8 -19 -14 -10 -14 -14 -3 -25 8 -7 14 -9 15 -5 0 4 2 18 5 30 4 25 -6
35 -25 24z"/>
<path d="M2597 3502 c-10 -15 0 -47 14 -47 17 0 19 47 2 52 -6 2 -14 0 -16 -5z"/>
<path d="M2656 3501 c-3 -4 -3 -16 -1 -27 2 -10 4 -23 4 -28 1 -5 8 -3 17 5
14 11 14 13 0 21 -9 5 -16 14 -16 21 0 8 3 8 9 -2 5 -8 11 -9 15 -3 3 5 -1 12
-9 16 -8 3 -16 2 -19 -3z"/>
<path d="M2914 3474 c-2 -39 5 -39 12 -1 2 14 1 28 -3 30 -5 3 -9 -10 -9 -29z"/>
<path d="M2956 3501 c-3 -4 -3 -16 -1 -27 2 -10 4 -23 4 -28 1 -5 8 -3 17 5
14 11 14 13 0 21 -9 5 -16 14 -16 21 0 8 3 8 9 -2 5 -8 11 -9 15 -3 3 5 -1 12
-9 16 -8 3 -16 2 -19 -3z"/>
<path d="M3011 3501 c-9 -6 -10 -11 -2 -15 6 -4 11 -2 11 5 0 7 3 9 7 5 5 -4
0 -13 -10 -21 -15 -11 -15 -14 -2 -25 8 -7 15 -9 16 -4 0 5 2 19 5 31 4 25 -6
35 -25 24z"/>
<path d="M3686 3501 c-3 -4 -3 -16 -1 -27 2 -10 4 -23 4 -28 1 -5 8 -3 17 5
14 11 14 13 0 21 -9 5 -16 14 -16 21 0 8 3 8 9 -2 5 -8 11 -9 15 -3 3 5 -1 12
-9 16 -8 3 -16 2 -19 -3z"/>
<path d="M3740 3500 c-8 -5 -11 -12 -7 -17 5 -4 12 -1 17 7 7 11 9 10 8 -7 -2
-14 -7 -19 -18 -15 -13 5 -13 3 -1 -11 16 -21 20 -18 27 16 5 29 -5 40 -26 27z"/>
<path d="M3796 3501 c-5 -8 0 -50 7 -58 3 -2 4 12 3 32 -1 37 -2 40 -10 26z"/>
<path d="M4040 3500 c-8 -5 -11 -12 -7 -17 5 -4 12 -1 17 7 7 11 9 10 8 -7 -2
-14 -7 -19 -18 -15 -13 5 -13 3 -1 -11 16 -21 20 -18 27 16 5 29 -5 40 -26 27z"/>
<path d="M4097 3502 c-10 -15 0 -47 14 -47 17 0 19 47 2 52 -6 2 -14 0 -16 -5z"/>
<path d="M4156 3501 c-3 -4 -3 -16 -1 -27 2 -10 4 -23 4 -27 1 -4 7 -2 15 5
12 11 12 14 0 21 -8 4 -14 13 -14 20 0 8 3 8 9 -2 5 -8 11 -9 15 -3 3 5 -1 12
-9 16 -8 3 -16 2 -19 -3z"/>
<path d="M4399 3508 c-8 -19 -4 -50 7 -59 8 -6 15 -8 15 -3 5 37 2 58 -8 61
-7 3 -14 3 -14 1z m21 -18 c0 -5 -2 -10 -4 -10 -3 0 -8 5 -11 10 -3 6 -1 10 4
10 6 0 11 -4 11 -10z"/>
<path d="M4456 3501 c-3 -4 -3 -16 -1 -27 2 -10 4 -23 4 -28 1 -5 8 -3 17 5
14 11 14 13 0 21 -9 5 -16 14 -16 21 0 8 3 8 9 -2 5 -8 11 -9 15 -3 3 5 -1 12
-9 16 -8 3 -16 2 -19 -3z"/>
<path d="M4510 3500 c-8 -5 -11 -12 -7 -17 5 -4 12 -1 17 7 7 11 9 10 8 -7 -2
-14 -7 -19 -18 -15 -13 5 -13 3 -1 -11 16 -21 20 -18 27 16 5 29 -5 40 -26 27z"/>
<path d="M5089 3819 c-20 -7 -26 -15 -22 -29 6 -23 23 -27 23 -6 0 28 96 38
106 11 8 -21 24 -19 24 4 0 29 -76 40 -131 20z"/>
<path d="M5108 3753 c-16 -4 -18 -19 -18 -129 l0 -124 55 0 55 0 0 120 c0 120
0 121 -26 130 -26 10 -37 11 -66 3z"/>
<path d="M5097 3483 c-3 -4 -4 -19 -3 -33 2 -37 31 -33 31 4 0 28 -18 46 -28
29z m23 -13 c0 -5 -4 -10 -10 -10 -5 0 -10 5 -10 10 0 6 5 10 10 10 6 0 10 -4
10 -10z m0 -30 c0 -5 -4 -10 -10 -10 -5 0 -10 5 -10 10 0 6 5 10 10 10 6 0 10
-4 10 -10z"/>
<path d="M5157 3483 c-3 -4 -4 -19 -3 -33 2 -37 31 -33 31 4 0 28 -18 46 -28
29z m23 -13 c0 -5 -5 -10 -11 -10 -5 0 -7 5 -4 10 3 6 8 10 11 10 2 0 4 -4 4
-10z m0 -30 c0 -5 -5 -10 -11 -10 -5 0 -7 5 -4 10 3 6 8 10 11 10 2 0 4 -4 4
-10z"/>
<path d="M5463 3823 c-15 -3 -23 -12 -23 -24 0 -23 15 -25 24 -4 4 11 22 15
71 15 49 0 67 -4 71 -15 8 -21 24 -19 24 4 0 13 -10 20 -31 25 -34 6 -100 6
-136 -1z"/>
<path d="M5478 3753 c-16 -4 -18 -19 -18 -124 l0 -119 75 0 75 0 0 119 c0 115
-1 119 -22 125 -26 6 -84 6 -110 -1z"/>
<path d="M5459 3480 c-7 -5 -10 -12 -6 -17 5 -4 12 -1 17 7 7 10 10 11 10 3 0
-7 5 -13 10 -13 6 0 10 4 10 9 0 14 -25 20 -41 11z"/>
<path d="M5519 3480 c-7 -5 -10 -12 -6 -17 5 -4 12 -1 17 7 7 10 10 11 10 3 0
-7 5 -13 10 -13 6 0 10 4 10 9 0 14 -25 20 -41 11z"/>
<path d="M5579 3480 c-7 -5 -10 -12 -6 -17 5 -4 12 -1 17 7 7 10 10 11 10 3 0
-7 5 -13 10 -13 6 0 10 4 10 9 0 14 -25 20 -41 11z"/>
<path d="M5463 3453 c-7 -3 -13 -8 -13 -13 0 -12 25 -19 39 -11 15 10 -8 31
-26 24z"/>
<path d="M5523 3453 c-7 -3 -13 -8 -13 -13 0 -12 25 -19 39 -11 15 10 -8 31
-26 24z"/>
<path d="M5580 3446 c-8 -10 -7 -15 2 -18 16 -6 38 1 38 12 0 15 -28 19 -40 6z"/>
<path d="M5842 3822 c-13 -4 -23 -10 -23 -14 1 -5 1 -16 2 -25 0 -15 3 -14 16
5 12 17 25 22 60 22 30 0 45 -5 49 -15 9 -21 24 -19 24 4 0 28 -67 40 -128 23z"/>
<path d="M5858 3753 c-16 -4 -18 -19 -18 -129 l0 -124 55 0 55 0 0 124 0 124
-31 6 c-33 6 -34 6 -61 -1z"/>
<path d="M5847 3483 c-3 -4 -4 -19 -3 -33 2 -37 31 -33 31 4 0 28 -18 46 -28
29z m23 -13 c0 -5 -5 -10 -11 -10 -5 0 -7 5 -4 10 3 6 8 10 11 10 2 0 4 -4 4
-10z m0 -30 c0 -5 -5 -10 -11 -10 -5 0 -7 5 -4 10 3 6 8 10 11 10 2 0 4 -4 4
-10z"/>
<path d="M5907 3483 c-3 -4 -4 -19 -3 -33 2 -37 31 -33 31 4 0 28 -18 46 -28
29z m23 -13 c0 -5 -5 -10 -11 -10 -5 0 -7 5 -4 10 3 6 8 10 11 10 2 0 4 -4 4
-10z m0 -30 c0 -5 -5 -10 -11 -10 -5 0 -7 5 -4 10 3 6 8 10 11 10 2 0 4 -4 4
-10z"/>
<path d="M768 3193 c-19 -5 -25 -43 -8 -43 6 0 10 7 10 15 0 12 13 15 55 15
42 0 55 -3 55 -15 0 -8 5 -15 10 -15 20 0 10 38 -12 44 -26 6 -84 6 -110 -1z"/>
<path d="M783 3123 c-10 -3 -13 -38 -13 -124 l0 -119 55 0 55 0 0 119 c0 99
-3 120 -16 125 -18 7 -63 7 -81 -1z"/>
<path d="M1118 3193 c-20 -3 -28 -10 -28 -24 0 -23 15 -25 24 -4 4 11 22 15
71 15 49 0 67 -4 71 -15 8 -21 24 -19 24 4 0 26 -74 37 -162 24z"/>
<path d="M1128 3123 c-16 -4 -18 -19 -18 -124 l0 -119 75 0 75 0 0 119 c0 115
-1 119 -22 125 -26 6 -84 6 -110 -1z"/>
<path d="M1518 3193 c-20 -5 -24 -28 -8 -38 6 -3 10 1 10 9 0 13 12 16 55 16
42 0 55 -3 55 -15 0 -8 5 -15 10 -15 20 0 10 38 -12 44 -26 6 -84 6 -110 -1z"/>
<path d="M2158 3233 c-19 -5 -24 -38 -8 -48 6 -3 10 3 10 14 0 16 9 21 53 26
69 8 133 -6 129 -28 -4 -24 15 -21 21 4 4 15 -1 22 -19 30 -25 9 -153 11 -186
2z"/>
<path d="M2512 3233 c-16 -3 -22 -10 -18 -20 3 -8 6 -20 7 -26 0 -7 4 -3 9 9
17 42 174 43 189 0 8 -21 8 -20 15 2 5 13 5 26 2 30 -8 7 -173 12 -204 5z"/>
<path d="M2868 3233 c-19 -5 -24 -38 -8 -48 6 -3 10 3 10 14 0 16 9 21 53 26
69 8 133 -6 129 -28 -4 -24 15 -21 21 4 4 15 -1 22 -19 30 -25 9 -153 11 -186
2z"/>
<path d="M2533 3163 c-10 -3 -13 -42 -13 -144 l0 -139 90 0 90 0 0 139 c0 135
-1 139 -22 145 -27 7 -128 7 -145 -1z"/>
<path d="M2888 3163 c-16 -4 -18 -20 -18 -144 l0 -139 90 0 90 0 0 139 c0 117
-2 140 -16 145 -18 7 -120 6 -146 -1z"/>
<path d="M3663 3230 c-15 -6 -20 -15 -16 -29 6 -25 25 -28 21 -4 -4 22 60 36
130 28 43 -5 52 -10 52 -26 0 -11 5 -17 10 -14 18 11 10 43 -12 49 -34 9 -160
6 -185 -4z"/>
<path d="M4023 3233 c-24 -5 -29 -19 -14 -41 6 -11 9 -9 13 6 5 16 17 22 59
26 61 7 123 -4 125 -22 3 -26 6 -26 15 -3 5 13 7 26 4 29 -7 8 -174 12 -202 5z"/>
<path d="M4373 3230 c-15 -6 -20 -15 -16 -29 6 -25 25 -28 21 -4 -4 22 60 36
130 28 43 -5 52 -10 52 -26 0 -11 5 -17 10 -14 18 11 10 43 -12 49 -34 9 -160
6 -185 -4z"/>
<path d="M3683 3163 c-10 -3 -13 -42 -13 -144 l0 -139 90 0 90 0 0 139 c0 135
-1 139 -22 145 -27 7 -128 7 -145 -1z"/>
<path d="M4038 3163 c-16 -4 -18 -20 -18 -144 l0 -139 90 0 90 0 0 139 c0 117
-2 140 -16 145 -18 7 -120 6 -146 -1z"/>
<path d="M5088 3194 c-19 -6 -25 -44 -8 -44 6 0 10 7 10 15 0 24 107 21 113
-2 4 -17 4 -17 12 0 4 10 5 21 1 24 -8 8 -106 13 -128 7z"/>
<path d="M5468 3193 c-20 -3 -28 -10 -28 -24 0 -23 15 -25 24 -4 4 11 22 15
71 15 49 0 67 -4 71 -15 8 -21 24 -19 24 4 0 26 -74 37 -162 24z"/>
<path d="M5478 3123 c-16 -4 -18 -19 -18 -124 l0 -119 75 0 75 0 0 119 c0 115
-1 119 -22 125 -26 6 -84 6 -110 -1z"/>
<path d="M5838 3193 c-19 -5 -25 -43 -8 -43 6 0 10 7 10 15 0 12 13 15 55 15
42 0 55 -3 55 -15 0 -8 5 -15 10 -15 20 0 10 38 -12 44 -26 6 -84 6 -110 -1z"/>
<path d="M5853 3123 c-10 -3 -13 -38 -13 -124 l0 -119 55 0 55 0 0 119 c0 99
-3 120 -16 125 -18 7 -63 7 -81 -1z"/>
<path d="M2975 1800 c-22 -5 -60 -15 -85 -22 l-45 -14 -3 -322 -2 -322 47 8
c27 4 102 7 168 7 140 0 199 -16 264 -71 l41 -36 41 36 c65 55 124 71 264 71
66 0 141 -3 168 -7 l47 -8 -2 322 -3 322 -60 19 c-33 11 -103 21 -156 24 -81
5 -109 2 -165 -16 -38 -11 -82 -29 -99 -39 l-30 -19 -74 35 c-67 32 -83 36
-175 38 -55 2 -119 -1 -141 -6z m217 -21 c29 -6 79 -25 110 -41 l57 -30 61 30
c33 17 86 36 118 43 70 14 190 6 263 -18 l54 -18 3 -297 2 -296 -140 5 c-166
7 -245 -9 -316 -63 l-44 -34 -44 34 c-71 54 -150 70 -316 63 l-140 -5 0 294 0
294 23 10 c75 34 220 48 309 29z"/>
<path d="M3203 1580 c-45 -18 -58 -90 -24 -131 15 -19 29 -24 65 -24 45 0 46
-1 46 -32 0 -35 -32 -77 -53 -70 -7 2 -13 18 -15 35 -2 23 -8 32 -22 32 -25 0
-34 -29 -15 -51 23 -25 61 -32 102 -18 84 27 98 199 22 253 -25 17 -71 20
-106 6z m77 -19 c15 -30 12 -107 -5 -121 -34 -28 -65 48 -44 108 12 36 33 41
49 13z"/>
<path d="M3033 1554 c-18 -14 -33 -31 -33 -37 0 -8 4 -7 12 1 31 31 38 14 38
-87 0 -86 -2 -100 -17 -104 -10 -3 9 -5 42 -5 33 0 54 2 48 5 -10 3 -13 39
-13 129 0 122 0 124 -22 124 -13 0 -38 -12 -55 -26z"/>
<path d="M3415 1550 c-27 -28 -24 -45 3 -18 9 9 12 -12 12 -94 0 -76 -4 -108
-12 -111 -7 -3 14 -5 47 -5 33 0 52 2 43 5 -16 4 -18 19 -18 129 0 123 0 124
-23 124 -13 0 -36 -13 -52 -30z"/>
<path d="M3540 1543 c1 -36 2 -37 15 -19 8 11 15 23 15 28 0 4 29 8 65 8 36 0
65 -4 65 -10 0 -5 -21 -35 -46 -66 -48 -59 -74 -109 -74 -144 0 -16 6 -20 35
-20 33 0 35 2 35 36 0 20 13 66 29 102 16 37 33 79 36 95 l7 27 -91 0 -91 0 0
-37z"/>
<path d="M2772 1323 l3 -308 254 -3 253 -2 20 -25 c27 -35 89 -35 116 0 l20
25 253 2 254 3 3 308 c1 202 -1 307 -8 307 -6 0 -10 -104 -10 -300 l0 -300
-258 0 c-257 0 -257 0 -267 -22 -15 -35 -69 -37 -91 -4 l-16 26 -254 0 -254 0
0 300 c0 196 -4 300 -10 300 -7 0 -9 -105 -8 -307z"/>
<path d="M868 1862 c-7 -25 -197 -144 -221 -138 -16 4 -15 1 4 -32 30 -50 37
-57 36 -36 -1 11 16 30 47 51 28 18 52 31 54 28 3 -2 -6 -45 -18 -96 -22 -89
-22 -92 -4 -128 17 -34 18 -35 21 -11 4 32 44 214 48 218 6 7 130 -32 154 -47
23 -15 23 -14 13 4 -22 41 -39 58 -46 47 -4 -6 -12 -9 -19 -7 -7 2 -39 11 -71
20 l-59 17 46 30 c41 27 49 29 64 17 16 -12 15 -10 -1 16 -43 68 -43 68 -48
47z"/>
<path d="M5806 1815 c-15 -23 -15 -27 -2 -41 13 -12 56 -98 56 -110 0 -2 -31
-4 -70 -4 -49 0 -70 4 -70 13 0 6 -12 -6 -28 -28 -15 -22 -37 -52 -49 -65 -48
-55 -143 -175 -143 -181 0 -4 7 -12 15 -19 12 -10 15 -9 15 6 0 11 10 32 23
47 l22 29 70 -57 c115 -93 125 -104 119 -120 -11 -26 2 -16 34 29 26 37 29 43
13 39 -13 -3 -47 18 -110 68 -50 40 -91 75 -91 79 0 3 14 20 30 39 17 18 28
36 25 41 -13 21 41 40 116 40 70 0 81 -3 125 -33 29 -19 48 -40 48 -50 -2 -24
0 -22 30 23 31 47 31 50 8 43 -10 -2 -36 9 -59 26 -32 23 -51 49 -78 108 -20
42 -33 83 -31 90 8 21 0 15 -18 -12z"/>
<path d="M1036 1616 c6 -14 -9 -29 -121 -125 -42 -36 -67 -51 -82 -48 -19 3
-17 -1 15 -40 20 -23 37 -43 38 -43 1 0 0 8 -3 19 -3 12 8 29 38 55 23 20 45
36 49 36 8 0 90 -100 90 -110 0 -16 -85 -71 -103 -66 -13 3 -10 -5 14 -35 37
-47 49 -55 42 -31 -3 14 15 35 64 78 101 89 122 104 141 97 15 -5 3 11 -52 72
-6 6 -7 4 -3 -6 5 -17 -59 -90 -78 -89 -12 1 -90 95 -90 109 0 16 78 72 92 67
8 -3 -1 12 -18 34 -35 43 -42 48 -33 26z"/>
<path d="M5433 1341 c-25 -31 -28 -37 -13 -37 10 1 57 -37 104 -82 71 -69 86
-88 80 -105 -4 -13 -3 -18 2 -12 5 6 25 28 44 50 19 21 27 33 17 26 -15 -12
-27 -4 -106 74 -50 48 -91 96 -93 106 -2 15 -9 11 -35 -20z"/>
<path d="M1257 1350 c5 -17 -10 -37 -68 -97 -41 -41 -86 -81 -101 -87 l-28
-12 54 -53 c48 -47 58 -53 83 -46 l28 7 -34 11 c-19 7 -40 22 -48 34 -14 20
-12 25 26 65 l41 43 25 -28 c14 -16 22 -34 19 -40 -4 -7 5 -1 19 12 28 25 35
37 17 26 -14 -9 -60 21 -60 38 0 7 15 28 33 45 l34 33 26 -21 c15 -12 27 -31
27 -42 0 -17 2 -18 15 -8 20 16 21 14 -52 83 -44 42 -60 53 -56 37z"/>
<path d="M5350 1262 c0 -5 -11 -15 -24 -22 -29 -15 -57 -66 -49 -89 3 -9 15
-27 27 -40 20 -22 26 -23 95 -17 61 5 78 3 93 -11 25 -22 23 -45 -6 -72 -19
-18 -31 -22 -53 -16 -27 6 -27 6 -9 -14 17 -19 21 -19 47 -6 58 31 77 100 40
146 -18 22 -26 24 -101 21 -85 -3 -110 6 -110 38 0 26 36 53 64 48 22 -4 24
-3 16 13 -12 21 -30 34 -30 21z"/>
<path d="M1416 1196 c9 -24 -139 -206 -168 -206 -18 0 -15 -5 18 -29 34 -26
39 -28 42 -12 5 28 57 85 70 77 8 -4 12 -36 12 -85 0 -68 3 -80 23 -99 32 -30
37 -28 26 10 -5 18 -9 58 -9 89 l0 56 40 7 c85 13 91 90 12 153 -73 58 -73 58
-66 39z m84 -101 c0 -20 -50 -75 -68 -75 -8 0 -24 7 -34 16 -17 16 -16 19 24
67 l42 49 18 -22 c10 -12 18 -28 18 -35z"/>
<path d="M5085 1038 c-38 -29 -52 -44 -41 -46 9 -2 50 -49 91 -104 61 -80 73
-103 64 -114 -21 -26 6 -14 46 20 28 24 34 34 21 33 -26 -3 -84 69 -68 85 9 9
24 8 65 -5 69 -22 99 -21 128 1 l22 19 -54 6 c-30 3 -70 11 -90 16 -33 10 -35
13 -31 47 3 27 -1 41 -19 60 -33 35 -68 31 -134 -18z m121 -39 c16 -32 12 -49
-16 -67 -17 -10 -23 -7 -55 35 -41 54 -42 61 -12 72 30 11 65 -6 83 -40z"/>
<path d="M1619 981 c-27 -22 -30 -71 -9 -144 16 -54 8 -80 -29 -85 -34 -5 -74
36 -66 67 5 21 4 23 -9 12 -24 -20 -19 -47 15 -75 41 -35 91 -35 125 0 28 28
29 47 3 137 -10 35 -10 52 -3 65 27 42 89 11 82 -40 l-5 -28 24 22 c22 21 22
22 6 41 -23 24 -66 47 -91 47 -11 0 -30 -8 -43 -19z"/>
<path d="M4905 914 c-42 -27 -62 -44 -50 -44 25 0 151 -200 142 -225 -9 -21
-6 -20 67 26 48 30 66 47 66 63 -1 18 -2 19 -13 5 -7 -8 -25 -24 -41 -34 -28
-19 -28 -19 -46 5 -10 13 -25 36 -34 51 -15 26 -15 27 10 44 14 9 32 14 40 11
19 -7 17 4 -6 34 -11 14 -18 18 -15 9 4 -10 -3 -22 -19 -33 -35 -23 -39 -21
-66 26 l-23 41 23 19 c12 10 34 18 47 18 22 0 24 2 13 15 -16 19 -14 20 -95
-31z"/>
<path d="M1790 853 c-50 -26 -80 -76 -80 -133 0 -114 125 -190 221 -134 46 27
82 98 75 148 -13 101 -128 165 -216 119z m139 -29 c26 -22 31 -33 31 -70 0
-84 -61 -164 -125 -164 -41 0 -85 47 -85 91 0 59 48 140 95 159 34 15 52 11
84 -16z"/>
<path d="M4798 840 c-16 -9 -24 -20 -19 -26 12 -12 25 -204 14 -204 -4 0 -44
33 -87 73 l-78 74 -36 -19 c-20 -10 -29 -18 -20 -18 10 0 70 -45 134 -100 65
-55 119 -98 120 -97 2 2 -1 70 -6 152 -7 108 -7 152 2 162 17 21 6 22 -24 3z"/>
<path d="M2083 713 c-9 -21 -31 -74 -48 -118 -22 -54 -41 -84 -56 -92 -13 -7
-21 -13 -18 -13 4 0 24 -7 45 -16 33 -14 36 -14 25 -1 -10 13 -7 29 19 94 17
43 35 81 39 86 4 4 33 -56 65 -133 32 -77 60 -140 61 -140 2 0 24 53 49 118
26 64 56 124 66 133 18 16 18 17 2 22 -9 2 -26 8 -37 13 -17 7 -18 6 -7 -8 10
-12 7 -28 -18 -89 -17 -41 -35 -78 -39 -82 -4 -4 -34 53 -66 127 -31 75 -59
136 -62 136 -2 0 -11 -17 -20 -37z"/>
<path d="M4482 692 c-28 -15 -30 -19 -18 -32 18 -18 96 -197 96 -220 0 -9 -5
-21 -12 -28 -7 -7 11 -2 40 10 46 19 49 23 34 34 -25 17 -106 209 -99 234 6
24 2 24 -41 2z"/>
<path d="M4355 635 c-18 -8 -23 -14 -13 -14 11 -1 24 -24 42 -79 14 -42 26
-82 26 -89 0 -6 -61 20 -135 58 -74 39 -135 66 -135 61 0 -5 18 -65 40 -133
36 -114 38 -125 23 -141 -15 -17 -14 -17 32 -1 42 14 46 17 28 24 -15 5 -29
30 -48 89 -15 45 -25 83 -23 85 2 2 61 -26 132 -61 70 -36 130 -63 133 -60 3
3 -11 58 -32 122 -20 64 -34 125 -32 136 6 21 2 22 -38 3z"/>
<path d="M2543 570 c-51 -21 -57 -89 -12 -146 49 -62 53 -72 34 -100 -9 -15
-25 -24 -40 -24 -32 0 -69 36 -60 58 4 11 3 14 -4 7 -23 -24 -16 -50 19 -68
44 -22 87 -16 118 19 32 36 28 65 -18 125 -46 62 -51 94 -16 110 31 15 64 -3
73 -38 6 -25 7 -25 14 -8 13 34 10 42 -18 53 -48 18 -67 21 -90 12z"/>
<path d="M4025 540 c-23 -6 -25 -8 -8 -9 24 -1 25 -4 48 -104 20 -92 19 -110
-9 -140 -46 -50 -113 -44 -135 12 -18 46 -43 172 -38 192 5 18 2 19 -31 13
-44 -8 -51 -12 -34 -23 8 -4 22 -48 33 -97 22 -103 42 -136 92 -148 49 -13
122 15 142 54 19 37 19 62 -1 147 -8 37 -14 78 -11 90 4 24 1 25 -48 13z"/>
<path d="M2691 522 c-10 -19 -8 -20 27 -16 65 8 68 0 47 -118 -20 -115 -28
-138 -53 -139 -9 -1 3 -5 27 -10 23 -4 53 -11 65 -15 20 -6 20 -6 2 9 -19 14
-19 16 3 136 14 72 28 121 34 121 7 -1 29 -7 50 -14 33 -12 37 -12 37 3 0 13
-20 20 -99 34 -55 9 -106 20 -114 23 -9 3 -20 -2 -26 -14z"/>
<path d="M2985 364 c-38 -71 -75 -137 -83 -146 -14 -17 -12 -18 29 -18 35 1
40 3 27 11 -17 9 -17 12 3 50 20 40 21 40 62 34 54 -9 54 -9 62 -51 4 -26 3
-39 -7 -45 -9 -6 -7 -9 8 -9 12 0 37 -3 55 -7 33 -6 33 -5 18 13 -9 10 -34 75
-54 144 -21 69 -41 131 -45 139 -5 9 -30 -30 -75 -115z m75 -36 c0 -19 -11
-22 -47 -12 l-22 6 21 42 21 41 13 -30 c7 -16 13 -38 14 -47z"/>
<path d="M3531 473 c-60 -3 -71 -6 -58 -16 23 -17 37 -255 16 -268 -17 -10 46
-12 114 -3 39 6 46 10 50 33 5 23 4 24 -8 8 -7 -10 -28 -18 -51 -20 l-39 -2
-6 55 c-4 30 -5 58 -3 62 8 12 59 9 72 -4 13 -13 16 -1 6 26 -4 12 -11 13 -32
5 -41 -16 -52 -5 -52 51 l0 50 38 0 c21 0 44 -6 51 -12 11 -11 13 -10 7 5 -3
10 -6 23 -6 28 0 5 -6 8 -12 7 -7 -1 -46 -4 -87 -5z"/>
<path d="M3188 464 c-5 -4 -8 -13 -8 -21 0 -10 5 -11 18 -5 9 5 32 7 51 4 l34
-5 -6 -120 c-4 -84 -9 -122 -19 -128 -8 -6 0 -9 24 -9 20 0 45 -3 55 -6 17 -5
17 -5 1 9 -20 16 -22 54 -11 182 l6 77 49 -4 c36 -4 48 -2 48 8 0 10 -16 14
-59 14 -32 0 -85 3 -117 6 -32 3 -62 3 -66 -2z"/>
</g>
</svg>
